# xmcd
#
# Track frame offsets: 
#        150
#        14183
#        29288
#        51196
#        72129
#        99636
#        125079
#        142421
#        166344
#        193231
#        210922
#        233436
#        247215
#
# Disc length: 3624 seconds
#
# Revision: 0
# Processed by: cddbd v1.5.2PL0 Copyright (c) Steve Scherf et al.
# Submitted via: ExactAudioCopy v1.3
#
DISCID=c40e260d
DTITLE=Carey Bell - Harpslinger  - 30th Anniversity Edition
DYEAR=2017
DGENRE=Blues
TTITLE0=What My Mama Told Me
TTITLE1=Pretty Baby
TTITLE2=Blues With A Feeling
TTITLE3=85%
TTITLE4=Sweet Little Woman
TTITLE5=It's So Eay To Love You
TTITLE6=Strange Woman
TTITLE7=Last Night
TTITLE8=Blues With A Feeling (Alternative)
TTITLE9=I'm Ready (Bonus Track)
TTITLE10=Nineteen Years Old (Bonus Track)
TTITLE11=You're Gonna Get Lucky (Bonus Track)
TTITLE12=Sail On (Bonus Track)
EXTD=
EXTT0=
EXTT1=
EXTT2=
EXTT3=
EXTT4=
EXTT5=
EXTT6=
EXTT7=
EXTT8=
EXTT9=
EXTT10=
EXTT11=
EXTT12=
PLAYORDER=
